<mxfile host="Electron" agent="Mozilla/5.0 (X11; Linux x86_64) AppleWebKit/537.36 (KHTML, like Gecko) draw.io/26.1.1 Chrome/134.0.6998.205 Electron/35.2.1 Safari/537.36" version="26.1.1">
  <diagram name="Page-1" id="s9h_9yacn1upwzzSvioH">
    <mxGraphModel dx="1033" dy="607" grid="1" gridSize="10" guides="1" tooltips="1" connect="1" arrows="1" fold="1" page="1" pageScale="1" pageWidth="850" pageHeight="1100" math="0" shadow="0">
      <root>
        <mxCell id="0" />
        <mxCell id="1" parent="0" />
        <mxCell id="qk1813saGX2so6D51XIz-22" value="Airlines" style="shape=table;startSize=30;container=1;collapsible=0;childLayout=tableLayout;strokeColor=#788AA3;fontSize=16;labelBackgroundColor=none;fillColor=#B2C9AB;fontColor=#46495D;swimlaneFillColor=none;fontStyle=1" vertex="1" parent="1">
          <mxGeometry x="560" y="120" width="120" height="150" as="geometry" />
        </mxCell>
        <mxCell id="qk1813saGX2so6D51XIz-43" style="shape=tableRow;horizontal=0;startSize=0;swimlaneHead=0;swimlaneBody=0;strokeColor=#788AA3;top=0;left=0;bottom=0;right=0;collapsible=0;dropTarget=0;fillColor=none;points=[[0,0.5],[1,0.5]];portConstraint=eastwest;fontSize=16;labelBackgroundColor=none;fontColor=#46495D;" vertex="1" parent="qk1813saGX2so6D51XIz-22">
          <mxGeometry y="30" width="120" height="30" as="geometry" />
        </mxCell>
        <mxCell id="qk1813saGX2so6D51XIz-44" value="Airline (P)" style="shape=partialRectangle;html=1;whiteSpace=wrap;connectable=0;strokeColor=#788AA3;overflow=hidden;fillColor=#D5E8D4;top=0;left=0;bottom=0;right=0;pointerEvents=1;fontSize=16;labelBackgroundColor=none;fontColor=#46495D;fontStyle=0" vertex="1" parent="qk1813saGX2so6D51XIz-43">
          <mxGeometry width="120" height="30" as="geometry">
            <mxRectangle width="120" height="30" as="alternateBounds" />
          </mxGeometry>
        </mxCell>
        <mxCell id="qk1813saGX2so6D51XIz-23" value="" style="shape=tableRow;horizontal=0;startSize=0;swimlaneHead=0;swimlaneBody=0;strokeColor=#788AA3;top=0;left=0;bottom=0;right=0;collapsible=0;dropTarget=0;fillColor=none;points=[[0,0.5],[1,0.5]];portConstraint=eastwest;fontSize=16;labelBackgroundColor=none;fontColor=#46495D;" vertex="1" parent="qk1813saGX2so6D51XIz-22">
          <mxGeometry y="60" width="120" height="30" as="geometry" />
        </mxCell>
        <mxCell id="qk1813saGX2so6D51XIz-25" value="Clear Sky" style="shape=partialRectangle;html=1;whiteSpace=wrap;connectable=0;overflow=hidden;top=0;left=0;bottom=0;right=0;pointerEvents=1;fontSize=16;labelBackgroundColor=none;fillColor=light-dark(#ECF7EC,#E3F2E2);fontColor=#46495D;" vertex="1" parent="qk1813saGX2so6D51XIz-23">
          <mxGeometry width="120" height="30" as="geometry">
            <mxRectangle width="120" height="30" as="alternateBounds" />
          </mxGeometry>
        </mxCell>
        <mxCell id="qk1813saGX2so6D51XIz-39" style="shape=tableRow;horizontal=0;startSize=0;swimlaneHead=0;swimlaneBody=0;strokeColor=#788AA3;top=0;left=0;bottom=0;right=0;collapsible=0;dropTarget=0;fillColor=none;points=[[0,0.5],[1,0.5]];portConstraint=eastwest;fontSize=16;labelBackgroundColor=none;fontColor=#46495D;" vertex="1" parent="qk1813saGX2so6D51XIz-22">
          <mxGeometry y="90" width="120" height="30" as="geometry" />
        </mxCell>
        <mxCell id="qk1813saGX2so6D51XIz-40" value="Long Hop" style="shape=partialRectangle;html=1;whiteSpace=wrap;connectable=0;overflow=hidden;top=0;left=0;bottom=0;right=0;pointerEvents=1;fontSize=16;labelBackgroundColor=none;fillColor=light-dark(#ECF7EC,#E3F2E2);fontColor=#46495D;" vertex="1" parent="qk1813saGX2so6D51XIz-39">
          <mxGeometry width="120" height="30" as="geometry">
            <mxRectangle width="120" height="30" as="alternateBounds" />
          </mxGeometry>
        </mxCell>
        <mxCell id="qk1813saGX2so6D51XIz-41" style="shape=tableRow;horizontal=0;startSize=0;swimlaneHead=0;swimlaneBody=0;strokeColor=#788AA3;top=0;left=0;bottom=0;right=0;collapsible=0;dropTarget=0;fillColor=none;points=[[0,0.5],[1,0.5]];portConstraint=eastwest;fontSize=16;labelBackgroundColor=none;fontColor=#46495D;" vertex="1" parent="qk1813saGX2so6D51XIz-22">
          <mxGeometry y="120" width="120" height="30" as="geometry" />
        </mxCell>
        <mxCell id="qk1813saGX2so6D51XIz-42" value="Tree Top" style="shape=partialRectangle;html=1;whiteSpace=wrap;connectable=0;overflow=hidden;top=0;left=0;bottom=0;right=0;pointerEvents=1;fontSize=16;labelBackgroundColor=none;fillColor=light-dark(#ECF7EC,#E3F2E2);fontColor=#46495D;" vertex="1" parent="qk1813saGX2so6D51XIz-41">
          <mxGeometry width="120" height="30" as="geometry">
            <mxRectangle width="120" height="30" as="alternateBounds" />
          </mxGeometry>
        </mxCell>
        <mxCell id="qk1813saGX2so6D51XIz-51" value="Flights" style="shape=table;startSize=30;container=1;collapsible=0;childLayout=tableLayout;strokeColor=#788AA3;fontSize=16;labelBackgroundColor=none;fillColor=#B2C9AB;fontColor=#46495D;swimlaneFillColor=none;fontStyle=1" vertex="1" parent="1">
          <mxGeometry x="240" y="120" width="240" height="270" as="geometry" />
        </mxCell>
        <mxCell id="qk1813saGX2so6D51XIz-52" style="shape=tableRow;horizontal=0;startSize=0;swimlaneHead=0;swimlaneBody=0;strokeColor=#788AA3;top=0;left=0;bottom=0;right=0;collapsible=0;dropTarget=0;fillColor=none;points=[[0,0.5],[1,0.5]];portConstraint=eastwest;fontSize=16;labelBackgroundColor=none;fontColor=#46495D;" vertex="1" parent="qk1813saGX2so6D51XIz-51">
          <mxGeometry y="30" width="240" height="30" as="geometry" />
        </mxCell>
        <mxCell id="qk1813saGX2so6D51XIz-53" value="Flight (P)" style="shape=partialRectangle;html=1;whiteSpace=wrap;connectable=0;strokeColor=#788AA3;overflow=hidden;fillColor=#D5E8D4;top=0;left=0;bottom=0;right=0;pointerEvents=1;fontSize=16;labelBackgroundColor=none;fontColor=#46495D;fontStyle=0" vertex="1" parent="qk1813saGX2so6D51XIz-52">
          <mxGeometry width="120" height="30" as="geometry">
            <mxRectangle width="120" height="30" as="alternateBounds" />
          </mxGeometry>
        </mxCell>
        <mxCell id="qk1813saGX2so6D51XIz-60" value="Airline (F)" style="shape=partialRectangle;html=1;whiteSpace=wrap;connectable=0;strokeColor=#788AA3;overflow=hidden;fillColor=#D5E8D4;top=0;left=0;bottom=0;right=0;pointerEvents=1;fontSize=16;labelBackgroundColor=none;fontColor=#46495D;fontStyle=0" vertex="1" parent="qk1813saGX2so6D51XIz-52">
          <mxGeometry x="120" width="120" height="30" as="geometry">
            <mxRectangle width="120" height="30" as="alternateBounds" />
          </mxGeometry>
        </mxCell>
        <mxCell id="qk1813saGX2so6D51XIz-54" value="" style="shape=tableRow;horizontal=0;startSize=0;swimlaneHead=0;swimlaneBody=0;strokeColor=#788AA3;top=0;left=0;bottom=0;right=0;collapsible=0;dropTarget=0;fillColor=none;points=[[0,0.5],[1,0.5]];portConstraint=eastwest;fontSize=16;labelBackgroundColor=none;fontColor=#46495D;" vertex="1" parent="qk1813saGX2so6D51XIz-51">
          <mxGeometry y="60" width="240" height="30" as="geometry" />
        </mxCell>
        <mxCell id="qk1813saGX2so6D51XIz-55" value="CS205" style="shape=partialRectangle;html=1;whiteSpace=wrap;connectable=0;strokeColor=#788AA3;overflow=hidden;fillColor=light-dark(#ECF7EC,#E3F2E2);top=0;left=0;bottom=0;right=0;pointerEvents=1;fontSize=16;labelBackgroundColor=none;fontColor=#46495D;" vertex="1" parent="qk1813saGX2so6D51XIz-54">
          <mxGeometry width="120" height="30" as="geometry">
            <mxRectangle width="120" height="30" as="alternateBounds" />
          </mxGeometry>
        </mxCell>
        <mxCell id="qk1813saGX2so6D51XIz-61" value="Clear Sky" style="shape=partialRectangle;html=1;whiteSpace=wrap;connectable=0;strokeColor=#788AA3;overflow=hidden;fillColor=none;top=0;left=0;bottom=0;right=0;pointerEvents=1;fontSize=16;labelBackgroundColor=none;fontColor=#46495D;" vertex="1" parent="qk1813saGX2so6D51XIz-54">
          <mxGeometry x="120" width="120" height="30" as="geometry">
            <mxRectangle width="120" height="30" as="alternateBounds" />
          </mxGeometry>
        </mxCell>
        <mxCell id="qk1813saGX2so6D51XIz-56" style="shape=tableRow;horizontal=0;startSize=0;swimlaneHead=0;swimlaneBody=0;strokeColor=#788AA3;top=0;left=0;bottom=0;right=0;collapsible=0;dropTarget=0;fillColor=none;points=[[0,0.5],[1,0.5]];portConstraint=eastwest;fontSize=16;labelBackgroundColor=none;fontColor=#46495D;" vertex="1" parent="qk1813saGX2so6D51XIz-51">
          <mxGeometry y="90" width="240" height="30" as="geometry" />
        </mxCell>
        <mxCell id="qk1813saGX2so6D51XIz-57" value="CS37" style="shape=partialRectangle;html=1;whiteSpace=wrap;connectable=0;strokeColor=#788AA3;overflow=hidden;fillColor=light-dark(#ECF7EC,#E3F2E2);top=0;left=0;bottom=0;right=0;pointerEvents=1;fontSize=16;labelBackgroundColor=none;fontColor=#46495D;" vertex="1" parent="qk1813saGX2so6D51XIz-56">
          <mxGeometry width="120" height="30" as="geometry">
            <mxRectangle width="120" height="30" as="alternateBounds" />
          </mxGeometry>
        </mxCell>
        <mxCell id="qk1813saGX2so6D51XIz-62" value="Clear Sky" style="shape=partialRectangle;html=1;whiteSpace=wrap;connectable=0;strokeColor=#788AA3;overflow=hidden;fillColor=none;top=0;left=0;bottom=0;right=0;pointerEvents=1;fontSize=16;labelBackgroundColor=none;fontColor=#46495D;" vertex="1" parent="qk1813saGX2so6D51XIz-56">
          <mxGeometry x="120" width="120" height="30" as="geometry">
            <mxRectangle width="120" height="30" as="alternateBounds" />
          </mxGeometry>
        </mxCell>
        <mxCell id="qk1813saGX2so6D51XIz-58" style="shape=tableRow;horizontal=0;startSize=0;swimlaneHead=0;swimlaneBody=0;strokeColor=#788AA3;top=0;left=0;bottom=0;right=0;collapsible=0;dropTarget=0;fillColor=none;points=[[0,0.5],[1,0.5]];portConstraint=eastwest;fontSize=16;labelBackgroundColor=none;fontColor=#46495D;" vertex="1" parent="qk1813saGX2so6D51XIz-51">
          <mxGeometry y="120" width="240" height="30" as="geometry" />
        </mxCell>
        <mxCell id="qk1813saGX2so6D51XIz-59" value="CS102" style="shape=partialRectangle;html=1;whiteSpace=wrap;connectable=0;strokeColor=#788AA3;overflow=hidden;fillColor=light-dark(#ECF7EC,#E3F2E2);top=0;left=0;bottom=0;right=0;pointerEvents=1;fontSize=16;labelBackgroundColor=none;fontColor=#46495D;" vertex="1" parent="qk1813saGX2so6D51XIz-58">
          <mxGeometry width="120" height="30" as="geometry">
            <mxRectangle width="120" height="30" as="alternateBounds" />
          </mxGeometry>
        </mxCell>
        <mxCell id="qk1813saGX2so6D51XIz-63" value="Clear Sky" style="shape=partialRectangle;html=1;whiteSpace=wrap;connectable=0;strokeColor=#788AA3;overflow=hidden;fillColor=none;top=0;left=0;bottom=0;right=0;pointerEvents=1;fontSize=16;labelBackgroundColor=none;fontColor=#46495D;" vertex="1" parent="qk1813saGX2so6D51XIz-58">
          <mxGeometry x="120" width="120" height="30" as="geometry">
            <mxRectangle width="120" height="30" as="alternateBounds" />
          </mxGeometry>
        </mxCell>
        <mxCell id="qk1813saGX2so6D51XIz-74" style="shape=tableRow;horizontal=0;startSize=0;swimlaneHead=0;swimlaneBody=0;strokeColor=#788AA3;top=0;left=0;bottom=0;right=0;collapsible=0;dropTarget=0;fillColor=none;points=[[0,0.5],[1,0.5]];portConstraint=eastwest;fontSize=16;labelBackgroundColor=none;fontColor=#46495D;" vertex="1" parent="qk1813saGX2so6D51XIz-51">
          <mxGeometry y="150" width="240" height="30" as="geometry" />
        </mxCell>
        <mxCell id="qk1813saGX2so6D51XIz-75" value="LH67" style="shape=partialRectangle;html=1;whiteSpace=wrap;connectable=0;strokeColor=#788AA3;overflow=hidden;fillColor=light-dark(#ECF7EC,#E3F2E2);top=0;left=0;bottom=0;right=0;pointerEvents=1;fontSize=16;labelBackgroundColor=none;fontColor=#46495D;" vertex="1" parent="qk1813saGX2so6D51XIz-74">
          <mxGeometry width="120" height="30" as="geometry">
            <mxRectangle width="120" height="30" as="alternateBounds" />
          </mxGeometry>
        </mxCell>
        <mxCell id="qk1813saGX2so6D51XIz-76" value="Long Hop" style="shape=partialRectangle;html=1;whiteSpace=wrap;connectable=0;strokeColor=#788AA3;overflow=hidden;fillColor=none;top=0;left=0;bottom=0;right=0;pointerEvents=1;fontSize=16;labelBackgroundColor=none;fontColor=#46495D;" vertex="1" parent="qk1813saGX2so6D51XIz-74">
          <mxGeometry x="120" width="120" height="30" as="geometry">
            <mxRectangle width="120" height="30" as="alternateBounds" />
          </mxGeometry>
        </mxCell>
        <mxCell id="qk1813saGX2so6D51XIz-71" style="shape=tableRow;horizontal=0;startSize=0;swimlaneHead=0;swimlaneBody=0;strokeColor=#788AA3;top=0;left=0;bottom=0;right=0;collapsible=0;dropTarget=0;fillColor=none;points=[[0,0.5],[1,0.5]];portConstraint=eastwest;fontSize=16;labelBackgroundColor=none;fontColor=#46495D;" vertex="1" parent="qk1813saGX2so6D51XIz-51">
          <mxGeometry y="180" width="240" height="30" as="geometry" />
        </mxCell>
        <mxCell id="qk1813saGX2so6D51XIz-72" value="LH89" style="shape=partialRectangle;html=1;whiteSpace=wrap;connectable=0;strokeColor=#788AA3;overflow=hidden;fillColor=light-dark(#ECF7EC,#E3F2E2);top=0;left=0;bottom=0;right=0;pointerEvents=1;fontSize=16;labelBackgroundColor=none;fontColor=#46495D;" vertex="1" parent="qk1813saGX2so6D51XIz-71">
          <mxGeometry width="120" height="30" as="geometry">
            <mxRectangle width="120" height="30" as="alternateBounds" />
          </mxGeometry>
        </mxCell>
        <mxCell id="qk1813saGX2so6D51XIz-73" value="Long Hop" style="shape=partialRectangle;html=1;whiteSpace=wrap;connectable=0;strokeColor=#788AA3;overflow=hidden;fillColor=none;top=0;left=0;bottom=0;right=0;pointerEvents=1;fontSize=16;labelBackgroundColor=none;fontColor=#46495D;" vertex="1" parent="qk1813saGX2so6D51XIz-71">
          <mxGeometry x="120" width="120" height="30" as="geometry">
            <mxRectangle width="120" height="30" as="alternateBounds" />
          </mxGeometry>
        </mxCell>
        <mxCell id="qk1813saGX2so6D51XIz-68" style="shape=tableRow;horizontal=0;startSize=0;swimlaneHead=0;swimlaneBody=0;strokeColor=#788AA3;top=0;left=0;bottom=0;right=0;collapsible=0;dropTarget=0;fillColor=none;points=[[0,0.5],[1,0.5]];portConstraint=eastwest;fontSize=16;labelBackgroundColor=none;fontColor=#46495D;" vertex="1" parent="qk1813saGX2so6D51XIz-51">
          <mxGeometry y="210" width="240" height="30" as="geometry" />
        </mxCell>
        <mxCell id="qk1813saGX2so6D51XIz-69" value="TT331" style="shape=partialRectangle;html=1;whiteSpace=wrap;connectable=0;strokeColor=#788AA3;overflow=hidden;fillColor=light-dark(#ECF7EC,#E3F2E2);top=0;left=0;bottom=0;right=0;pointerEvents=1;fontSize=16;labelBackgroundColor=none;fontColor=#46495D;" vertex="1" parent="qk1813saGX2so6D51XIz-68">
          <mxGeometry width="120" height="30" as="geometry">
            <mxRectangle width="120" height="30" as="alternateBounds" />
          </mxGeometry>
        </mxCell>
        <mxCell id="qk1813saGX2so6D51XIz-70" value="Tree Top" style="shape=partialRectangle;html=1;whiteSpace=wrap;connectable=0;strokeColor=#788AA3;overflow=hidden;fillColor=none;top=0;left=0;bottom=0;right=0;pointerEvents=1;fontSize=16;labelBackgroundColor=none;fontColor=#46495D;" vertex="1" parent="qk1813saGX2so6D51XIz-68">
          <mxGeometry x="120" width="120" height="30" as="geometry">
            <mxRectangle width="120" height="30" as="alternateBounds" />
          </mxGeometry>
        </mxCell>
        <mxCell id="qk1813saGX2so6D51XIz-65" style="shape=tableRow;horizontal=0;startSize=0;swimlaneHead=0;swimlaneBody=0;strokeColor=#788AA3;top=0;left=0;bottom=0;right=0;collapsible=0;dropTarget=0;fillColor=none;points=[[0,0.5],[1,0.5]];portConstraint=eastwest;fontSize=16;labelBackgroundColor=none;fontColor=#46495D;" vertex="1" parent="qk1813saGX2so6D51XIz-51">
          <mxGeometry y="240" width="240" height="30" as="geometry" />
        </mxCell>
        <mxCell id="qk1813saGX2so6D51XIz-66" value="TT809" style="shape=partialRectangle;html=1;whiteSpace=wrap;connectable=0;strokeColor=#788AA3;overflow=hidden;fillColor=light-dark(#ECF7EC,#E3F2E2);top=0;left=0;bottom=0;right=0;pointerEvents=1;fontSize=16;labelBackgroundColor=none;fontColor=#46495D;" vertex="1" parent="qk1813saGX2so6D51XIz-65">
          <mxGeometry width="120" height="30" as="geometry">
            <mxRectangle width="120" height="30" as="alternateBounds" />
          </mxGeometry>
        </mxCell>
        <mxCell id="qk1813saGX2so6D51XIz-67" value="Tree Top" style="shape=partialRectangle;html=1;whiteSpace=wrap;connectable=0;strokeColor=#788AA3;overflow=hidden;fillColor=none;top=0;left=0;bottom=0;right=0;pointerEvents=1;fontSize=16;labelBackgroundColor=none;fontColor=#46495D;" vertex="1" parent="qk1813saGX2so6D51XIz-65">
          <mxGeometry x="120" width="120" height="30" as="geometry">
            <mxRectangle width="120" height="30" as="alternateBounds" />
          </mxGeometry>
        </mxCell>
        <mxCell id="qk1813saGX2so6D51XIz-77" value="Reservations" style="shape=table;startSize=30;container=1;collapsible=0;childLayout=tableLayout;strokeColor=#788AA3;fontSize=16;labelBackgroundColor=none;fillColor=#B2C9AB;fontColor=#46495D;swimlaneFillColor=none;fontStyle=1" vertex="1" parent="1">
          <mxGeometry x="240" y="440" width="360" height="270" as="geometry" />
        </mxCell>
        <mxCell id="qk1813saGX2so6D51XIz-78" style="shape=tableRow;horizontal=0;startSize=0;swimlaneHead=0;swimlaneBody=0;strokeColor=#788AA3;top=0;left=0;bottom=0;right=0;collapsible=0;dropTarget=0;fillColor=none;points=[[0,0.5],[1,0.5]];portConstraint=eastwest;fontSize=16;labelBackgroundColor=none;fontColor=#46495D;" vertex="1" parent="qk1813saGX2so6D51XIz-77">
          <mxGeometry y="30" width="360" height="30" as="geometry" />
        </mxCell>
        <mxCell id="qk1813saGX2so6D51XIz-79" value="Flight (C, F)" style="shape=partialRectangle;html=1;whiteSpace=wrap;connectable=0;strokeColor=#788AA3;overflow=hidden;fillColor=#D5E8D4;top=0;left=0;bottom=0;right=0;pointerEvents=1;fontSize=16;labelBackgroundColor=none;fontColor=#46495D;fontStyle=0" vertex="1" parent="qk1813saGX2so6D51XIz-78">
          <mxGeometry width="120" height="30" as="geometry">
            <mxRectangle width="120" height="30" as="alternateBounds" />
          </mxGeometry>
        </mxCell>
        <mxCell id="qk1813saGX2so6D51XIz-102" value="Seat (C)" style="shape=partialRectangle;html=1;whiteSpace=wrap;connectable=0;strokeColor=#788AA3;overflow=hidden;fillColor=#D5E8D4;top=0;left=0;bottom=0;right=0;pointerEvents=1;fontSize=16;labelBackgroundColor=none;fontColor=#46495D;fontStyle=0" vertex="1" parent="qk1813saGX2so6D51XIz-78">
          <mxGeometry x="120" width="120" height="30" as="geometry">
            <mxRectangle width="120" height="30" as="alternateBounds" />
          </mxGeometry>
        </mxCell>
        <mxCell id="qk1813saGX2so6D51XIz-110" value="Passenger" style="shape=partialRectangle;html=1;whiteSpace=wrap;connectable=0;strokeColor=#788AA3;overflow=hidden;fillColor=#D5E8D4;top=0;left=0;bottom=0;right=0;pointerEvents=1;fontSize=16;labelBackgroundColor=none;fontColor=#46495D;fontStyle=0" vertex="1" parent="qk1813saGX2so6D51XIz-78">
          <mxGeometry x="240" width="120" height="30" as="geometry">
            <mxRectangle width="120" height="30" as="alternateBounds" />
          </mxGeometry>
        </mxCell>
        <mxCell id="qk1813saGX2so6D51XIz-81" value="" style="shape=tableRow;horizontal=0;startSize=0;swimlaneHead=0;swimlaneBody=0;strokeColor=#788AA3;top=0;left=0;bottom=0;right=0;collapsible=0;dropTarget=0;fillColor=none;points=[[0,0.5],[1,0.5]];portConstraint=eastwest;fontSize=16;labelBackgroundColor=none;fontColor=#46495D;" vertex="1" parent="qk1813saGX2so6D51XIz-77">
          <mxGeometry y="60" width="360" height="30" as="geometry" />
        </mxCell>
        <mxCell id="qk1813saGX2so6D51XIz-82" value="CS205" style="shape=partialRectangle;html=1;whiteSpace=wrap;connectable=0;strokeColor=#788AA3;overflow=hidden;fillColor=light-dark(#ECF7EC,#E3F2E2);top=0;left=0;bottom=0;right=0;pointerEvents=1;fontSize=16;labelBackgroundColor=none;fontColor=#46495D;" vertex="1" parent="qk1813saGX2so6D51XIz-81">
          <mxGeometry width="120" height="30" as="geometry">
            <mxRectangle width="120" height="30" as="alternateBounds" />
          </mxGeometry>
        </mxCell>
        <mxCell id="qk1813saGX2so6D51XIz-103" value="12B" style="shape=partialRectangle;html=1;whiteSpace=wrap;connectable=0;strokeColor=#788AA3;overflow=hidden;fillColor=light-dark(#ECF7EC,#E3F2E2);top=0;left=0;bottom=0;right=0;pointerEvents=1;fontSize=16;labelBackgroundColor=none;fontColor=#46495D;" vertex="1" parent="qk1813saGX2so6D51XIz-81">
          <mxGeometry x="120" width="120" height="30" as="geometry">
            <mxRectangle width="120" height="30" as="alternateBounds" />
          </mxGeometry>
        </mxCell>
        <mxCell id="qk1813saGX2so6D51XIz-111" value="Smith" style="shape=partialRectangle;html=1;whiteSpace=wrap;connectable=0;strokeColor=#788AA3;overflow=hidden;fillColor=none;top=0;left=0;bottom=0;right=0;pointerEvents=1;fontSize=16;labelBackgroundColor=none;fontColor=#46495D;" vertex="1" parent="qk1813saGX2so6D51XIz-81">
          <mxGeometry x="240" width="120" height="30" as="geometry">
            <mxRectangle width="120" height="30" as="alternateBounds" />
          </mxGeometry>
        </mxCell>
        <mxCell id="qk1813saGX2so6D51XIz-84" style="shape=tableRow;horizontal=0;startSize=0;swimlaneHead=0;swimlaneBody=0;strokeColor=#788AA3;top=0;left=0;bottom=0;right=0;collapsible=0;dropTarget=0;fillColor=none;points=[[0,0.5],[1,0.5]];portConstraint=eastwest;fontSize=16;labelBackgroundColor=none;fontColor=#46495D;" vertex="1" parent="qk1813saGX2so6D51XIz-77">
          <mxGeometry y="90" width="360" height="30" as="geometry" />
        </mxCell>
        <mxCell id="qk1813saGX2so6D51XIz-85" value="CS37" style="shape=partialRectangle;html=1;whiteSpace=wrap;connectable=0;strokeColor=#788AA3;overflow=hidden;fillColor=light-dark(#ECF7EC,#E3F2E2);top=0;left=0;bottom=0;right=0;pointerEvents=1;fontSize=16;labelBackgroundColor=none;fontColor=#46495D;" vertex="1" parent="qk1813saGX2so6D51XIz-84">
          <mxGeometry width="120" height="30" as="geometry">
            <mxRectangle width="120" height="30" as="alternateBounds" />
          </mxGeometry>
        </mxCell>
        <mxCell id="qk1813saGX2so6D51XIz-104" value="18C" style="shape=partialRectangle;html=1;whiteSpace=wrap;connectable=0;strokeColor=#788AA3;overflow=hidden;fillColor=light-dark(#ECF7EC,#E3F2E2);top=0;left=0;bottom=0;right=0;pointerEvents=1;fontSize=16;labelBackgroundColor=none;fontColor=#46495D;" vertex="1" parent="qk1813saGX2so6D51XIz-84">
          <mxGeometry x="120" width="120" height="30" as="geometry">
            <mxRectangle width="120" height="30" as="alternateBounds" />
          </mxGeometry>
        </mxCell>
        <mxCell id="qk1813saGX2so6D51XIz-112" value="Smith" style="shape=partialRectangle;html=1;whiteSpace=wrap;connectable=0;strokeColor=#788AA3;overflow=hidden;fillColor=none;top=0;left=0;bottom=0;right=0;pointerEvents=1;fontSize=16;labelBackgroundColor=none;fontColor=#46495D;" vertex="1" parent="qk1813saGX2so6D51XIz-84">
          <mxGeometry x="240" width="120" height="30" as="geometry">
            <mxRectangle width="120" height="30" as="alternateBounds" />
          </mxGeometry>
        </mxCell>
        <mxCell id="qk1813saGX2so6D51XIz-126" style="shape=tableRow;horizontal=0;startSize=0;swimlaneHead=0;swimlaneBody=0;strokeColor=#788AA3;top=0;left=0;bottom=0;right=0;collapsible=0;dropTarget=0;fillColor=none;points=[[0,0.5],[1,0.5]];portConstraint=eastwest;fontSize=16;labelBackgroundColor=none;fontColor=#46495D;" vertex="1" parent="qk1813saGX2so6D51XIz-77">
          <mxGeometry y="120" width="360" height="30" as="geometry" />
        </mxCell>
        <mxCell id="qk1813saGX2so6D51XIz-127" value="CS37" style="shape=partialRectangle;html=1;whiteSpace=wrap;connectable=0;strokeColor=#788AA3;overflow=hidden;fillColor=light-dark(#ECF7EC,#E3F2E2);top=0;left=0;bottom=0;right=0;pointerEvents=1;fontSize=16;labelBackgroundColor=none;fontColor=#46495D;" vertex="1" parent="qk1813saGX2so6D51XIz-126">
          <mxGeometry width="120" height="30" as="geometry">
            <mxRectangle width="120" height="30" as="alternateBounds" />
          </mxGeometry>
        </mxCell>
        <mxCell id="qk1813saGX2so6D51XIz-128" value="18B" style="shape=partialRectangle;html=1;whiteSpace=wrap;connectable=0;strokeColor=#788AA3;overflow=hidden;fillColor=light-dark(#ECF7EC,#E3F2E2);top=0;left=0;bottom=0;right=0;pointerEvents=1;fontSize=16;labelBackgroundColor=none;fontColor=#46495D;" vertex="1" parent="qk1813saGX2so6D51XIz-126">
          <mxGeometry x="120" width="120" height="30" as="geometry">
            <mxRectangle width="120" height="30" as="alternateBounds" />
          </mxGeometry>
        </mxCell>
        <mxCell id="qk1813saGX2so6D51XIz-129" value="Baker" style="shape=partialRectangle;html=1;whiteSpace=wrap;connectable=0;strokeColor=#788AA3;overflow=hidden;fillColor=none;top=0;left=0;bottom=0;right=0;pointerEvents=1;fontSize=16;labelBackgroundColor=none;fontColor=#46495D;" vertex="1" parent="qk1813saGX2so6D51XIz-126">
          <mxGeometry x="240" width="120" height="30" as="geometry">
            <mxRectangle width="120" height="30" as="alternateBounds" />
          </mxGeometry>
        </mxCell>
        <mxCell id="qk1813saGX2so6D51XIz-90" style="shape=tableRow;horizontal=0;startSize=0;swimlaneHead=0;swimlaneBody=0;strokeColor=#788AA3;top=0;left=0;bottom=0;right=0;collapsible=0;dropTarget=0;fillColor=none;points=[[0,0.5],[1,0.5]];portConstraint=eastwest;fontSize=16;labelBackgroundColor=none;fontColor=#46495D;" vertex="1" parent="qk1813saGX2so6D51XIz-77">
          <mxGeometry y="150" width="360" height="30" as="geometry" />
        </mxCell>
        <mxCell id="qk1813saGX2so6D51XIz-91" value="LH67" style="shape=partialRectangle;html=1;whiteSpace=wrap;connectable=0;strokeColor=#788AA3;overflow=hidden;fillColor=light-dark(#ECF7EC,#E3F2E2);top=0;left=0;bottom=0;right=0;pointerEvents=1;fontSize=16;labelBackgroundColor=none;fontColor=#46495D;" vertex="1" parent="qk1813saGX2so6D51XIz-90">
          <mxGeometry width="120" height="30" as="geometry">
            <mxRectangle width="120" height="30" as="alternateBounds" />
          </mxGeometry>
        </mxCell>
        <mxCell id="qk1813saGX2so6D51XIz-106" value="5A" style="shape=partialRectangle;html=1;whiteSpace=wrap;connectable=0;strokeColor=#788AA3;overflow=hidden;fillColor=light-dark(#ECF7EC,#E3F2E2);top=0;left=0;bottom=0;right=0;pointerEvents=1;fontSize=16;labelBackgroundColor=none;fontColor=#46495D;" vertex="1" parent="qk1813saGX2so6D51XIz-90">
          <mxGeometry x="120" width="120" height="30" as="geometry">
            <mxRectangle width="120" height="30" as="alternateBounds" />
          </mxGeometry>
        </mxCell>
        <mxCell id="qk1813saGX2so6D51XIz-114" value="Clark" style="shape=partialRectangle;html=1;whiteSpace=wrap;connectable=0;strokeColor=#788AA3;overflow=hidden;fillColor=none;top=0;left=0;bottom=0;right=0;pointerEvents=1;fontSize=16;labelBackgroundColor=none;fontColor=#46495D;" vertex="1" parent="qk1813saGX2so6D51XIz-90">
          <mxGeometry x="240" width="120" height="30" as="geometry">
            <mxRectangle width="120" height="30" as="alternateBounds" />
          </mxGeometry>
        </mxCell>
        <mxCell id="qk1813saGX2so6D51XIz-93" style="shape=tableRow;horizontal=0;startSize=0;swimlaneHead=0;swimlaneBody=0;strokeColor=#788AA3;top=0;left=0;bottom=0;right=0;collapsible=0;dropTarget=0;fillColor=none;points=[[0,0.5],[1,0.5]];portConstraint=eastwest;fontSize=16;labelBackgroundColor=none;fontColor=#46495D;" vertex="1" parent="qk1813saGX2so6D51XIz-77">
          <mxGeometry y="180" width="360" height="30" as="geometry" />
        </mxCell>
        <mxCell id="qk1813saGX2so6D51XIz-94" value="LH89" style="shape=partialRectangle;html=1;whiteSpace=wrap;connectable=0;strokeColor=#788AA3;overflow=hidden;fillColor=light-dark(#ECF7EC,#E3F2E2);top=0;left=0;bottom=0;right=0;pointerEvents=1;fontSize=16;labelBackgroundColor=none;fontColor=#46495D;" vertex="1" parent="qk1813saGX2so6D51XIz-93">
          <mxGeometry width="120" height="30" as="geometry">
            <mxRectangle width="120" height="30" as="alternateBounds" />
          </mxGeometry>
        </mxCell>
        <mxCell id="qk1813saGX2so6D51XIz-107" value="14A" style="shape=partialRectangle;html=1;whiteSpace=wrap;connectable=0;strokeColor=#788AA3;overflow=hidden;fillColor=light-dark(#ECF7EC,#E3F2E2);top=0;left=0;bottom=0;right=0;pointerEvents=1;fontSize=16;labelBackgroundColor=none;fontColor=#46495D;" vertex="1" parent="qk1813saGX2so6D51XIz-93">
          <mxGeometry x="120" width="120" height="30" as="geometry">
            <mxRectangle width="120" height="30" as="alternateBounds" />
          </mxGeometry>
        </mxCell>
        <mxCell id="qk1813saGX2so6D51XIz-115" value="Smith" style="shape=partialRectangle;html=1;whiteSpace=wrap;connectable=0;strokeColor=#788AA3;overflow=hidden;fillColor=none;top=0;left=0;bottom=0;right=0;pointerEvents=1;fontSize=16;labelBackgroundColor=none;fontColor=#46495D;" vertex="1" parent="qk1813saGX2so6D51XIz-93">
          <mxGeometry x="240" width="120" height="30" as="geometry">
            <mxRectangle width="120" height="30" as="alternateBounds" />
          </mxGeometry>
        </mxCell>
        <mxCell id="qk1813saGX2so6D51XIz-130" style="shape=tableRow;horizontal=0;startSize=0;swimlaneHead=0;swimlaneBody=0;strokeColor=#788AA3;top=0;left=0;bottom=0;right=0;collapsible=0;dropTarget=0;fillColor=none;points=[[0,0.5],[1,0.5]];portConstraint=eastwest;fontSize=16;labelBackgroundColor=none;fontColor=#46495D;" vertex="1" parent="qk1813saGX2so6D51XIz-77">
          <mxGeometry y="210" width="360" height="30" as="geometry" />
        </mxCell>
        <mxCell id="qk1813saGX2so6D51XIz-131" value="LH89" style="shape=partialRectangle;html=1;whiteSpace=wrap;connectable=0;strokeColor=#788AA3;overflow=hidden;fillColor=light-dark(#ECF7EC,#E3F2E2);top=0;left=0;bottom=0;right=0;pointerEvents=1;fontSize=16;labelBackgroundColor=none;fontColor=#46495D;" vertex="1" parent="qk1813saGX2so6D51XIz-130">
          <mxGeometry width="120" height="30" as="geometry">
            <mxRectangle width="120" height="30" as="alternateBounds" />
          </mxGeometry>
        </mxCell>
        <mxCell id="qk1813saGX2so6D51XIz-132" value="14B" style="shape=partialRectangle;html=1;whiteSpace=wrap;connectable=0;strokeColor=#788AA3;overflow=hidden;fillColor=light-dark(#ECF7EC,#E3F2E2);top=0;left=0;bottom=0;right=0;pointerEvents=1;fontSize=16;labelBackgroundColor=none;fontColor=#46495D;" vertex="1" parent="qk1813saGX2so6D51XIz-130">
          <mxGeometry x="120" width="120" height="30" as="geometry">
            <mxRectangle width="120" height="30" as="alternateBounds" />
          </mxGeometry>
        </mxCell>
        <mxCell id="qk1813saGX2so6D51XIz-133" value="Baker" style="shape=partialRectangle;html=1;whiteSpace=wrap;connectable=0;strokeColor=#788AA3;overflow=hidden;fillColor=none;top=0;left=0;bottom=0;right=0;pointerEvents=1;fontSize=16;labelBackgroundColor=none;fontColor=#46495D;" vertex="1" parent="qk1813saGX2so6D51XIz-130">
          <mxGeometry x="240" width="120" height="30" as="geometry">
            <mxRectangle width="120" height="30" as="alternateBounds" />
          </mxGeometry>
        </mxCell>
        <mxCell id="qk1813saGX2so6D51XIz-96" style="shape=tableRow;horizontal=0;startSize=0;swimlaneHead=0;swimlaneBody=0;strokeColor=#788AA3;top=0;left=0;bottom=0;right=0;collapsible=0;dropTarget=0;fillColor=none;points=[[0,0.5],[1,0.5]];portConstraint=eastwest;fontSize=16;labelBackgroundColor=none;fontColor=#46495D;" vertex="1" parent="qk1813saGX2so6D51XIz-77">
          <mxGeometry y="240" width="360" height="30" as="geometry" />
        </mxCell>
        <mxCell id="qk1813saGX2so6D51XIz-97" value="LH89" style="shape=partialRectangle;html=1;whiteSpace=wrap;connectable=0;strokeColor=#788AA3;overflow=hidden;fillColor=light-dark(#ECF7EC,#E3F2E2);top=0;left=0;bottom=0;right=0;pointerEvents=1;fontSize=16;labelBackgroundColor=none;fontColor=#46495D;" vertex="1" parent="qk1813saGX2so6D51XIz-96">
          <mxGeometry width="120" height="30" as="geometry">
            <mxRectangle width="120" height="30" as="alternateBounds" />
          </mxGeometry>
        </mxCell>
        <mxCell id="qk1813saGX2so6D51XIz-108" value="4B" style="shape=partialRectangle;html=1;whiteSpace=wrap;connectable=0;strokeColor=#788AA3;overflow=hidden;fillColor=light-dark(#ECF7EC,#E3F2E2);top=0;left=0;bottom=0;right=0;pointerEvents=1;fontSize=16;labelBackgroundColor=none;fontColor=#46495D;" vertex="1" parent="qk1813saGX2so6D51XIz-96">
          <mxGeometry x="120" width="120" height="30" as="geometry">
            <mxRectangle width="120" height="30" as="alternateBounds" />
          </mxGeometry>
        </mxCell>
        <mxCell id="qk1813saGX2so6D51XIz-116" value="Clark" style="shape=partialRectangle;html=1;whiteSpace=wrap;connectable=0;strokeColor=#788AA3;overflow=hidden;fillColor=none;top=0;left=0;bottom=0;right=0;pointerEvents=1;fontSize=16;labelBackgroundColor=none;fontColor=#46495D;" vertex="1" parent="qk1813saGX2so6D51XIz-96">
          <mxGeometry x="240" width="120" height="30" as="geometry">
            <mxRectangle width="120" height="30" as="alternateBounds" />
          </mxGeometry>
        </mxCell>
        <mxCell id="qk1813saGX2so6D51XIz-142" style="edgeStyle=orthogonalEdgeStyle;rounded=0;orthogonalLoop=1;jettySize=auto;html=1;entryX=0;entryY=0.5;entryDx=0;entryDy=0;strokeColor=#788AA3;fontColor=#46495D;fillColor=#B2C9AB;strokeWidth=2;fontStyle=1" edge="1" parent="1" source="qk1813saGX2so6D51XIz-52" target="qk1813saGX2so6D51XIz-43">
          <mxGeometry relative="1" as="geometry" />
        </mxCell>
        <mxCell id="qk1813saGX2so6D51XIz-145" value="" style="endArrow=classic;html=1;rounded=0;strokeColor=#788AA3;fontColor=#46495D;fillColor=#B2C9AB;entryX=0.222;entryY=1.015;entryDx=0;entryDy=0;entryPerimeter=0;strokeWidth=2;" edge="1" parent="1" target="qk1813saGX2so6D51XIz-65">
          <mxGeometry width="50" height="50" relative="1" as="geometry">
            <mxPoint x="293" y="470" as="sourcePoint" />
            <mxPoint x="330" y="400" as="targetPoint" />
          </mxGeometry>
        </mxCell>
        <mxCell id="qk1813saGX2so6D51XIz-146" value="&lt;b&gt;Legend&lt;/b&gt;&lt;div&gt;P = Primary Key&lt;/div&gt;&lt;div&gt;C = Composite Key&lt;/div&gt;&lt;div&gt;F = Foreign Key&lt;/div&gt;" style="text;html=1;align=left;verticalAlign=middle;resizable=0;points=[];autosize=1;strokeColor=none;fillColor=none;fontColor=#46495D;fontSize=15;" vertex="1" parent="1">
          <mxGeometry x="560" y="300" width="150" height="90" as="geometry" />
        </mxCell>
      </root>
    </mxGraphModel>
  </diagram>
</mxfile>
